<svg width="281" height="287" viewBox="0 0 281 287" fill="none" xmlns="http://www.w3.org/2000/svg">
<g filter="url(#filter0_d_151_153)">
<path d="M99.8643 224.86C113.767 227.313 128.016 227.004 141.799 223.95C155.582 220.897 168.628 215.158 180.193 207.063C191.759 198.967 201.616 188.673 209.203 176.768C216.789 164.862 221.957 151.579 224.41 137.677L203.237 133.941C201.275 145.063 197.141 155.689 191.071 165.213C185.002 174.737 177.116 182.973 167.864 189.449C158.612 195.926 148.175 200.517 137.148 202.959C126.122 205.402 110.986 206.412 99.8643 204.449L99.8643 224.86Z" fill='#F3BB2B'/>
<path d="M100 121.449H226L225.788 129.564L225.779 129.696C225.539 133.517 224.831 137.294 223.671 140.943V140.943H115.838V149.184H156.565L141.293 164.636H115.838V184.949L100 201.449V121.449Z" fill="white"/>
<path fill-rule="evenodd" clip-rule="evenodd" d="M72 51.4494H151L168.5 70.2232H91V83.0684H221.168C223.587 89.1446 225.208 95.4431 226 101.842H91V221.747C84.4599 220.522 78.0841 218.549 72 215.871V101.842V83.0684V70.2232V59.4807V51.4494Z" fill="white"/>
<path fill-rule="evenodd" clip-rule="evenodd" d="M217.482 74.4493C210.395 58.9184 199.711 45.2974 186.312 34.7149C172.844 24.078 157.026 16.8201 140.179 13.5481C123.332 10.2761 105.946 11.0852 89.4758 15.9077C73.0055 20.7301 57.9292 29.4258 45.5075 41.2675C33.0857 53.1092 23.6797 67.7529 18.0758 83.9739C12.4719 100.195 10.8331 117.522 13.2963 134.506C15.7596 151.49 22.2534 167.638 32.2347 181.598C40.7776 193.547 51.6629 203.597 64.1995 211.151L64.654 185.166C59.0316 180.484 54.0097 175.088 49.7244 169.094C41.7394 157.925 36.5443 145.007 34.5737 131.42C32.6031 117.833 33.9142 103.971 38.3973 90.9944C42.8804 78.0176 50.4052 66.3026 60.3426 56.8293C70.28 47.3559 82.3411 40.3993 95.5173 36.5414C108.694 32.6834 122.602 32.0362 136.08 34.6537C149.557 37.2713 162.212 43.0776 172.986 51.5872C181.054 57.9592 187.892 65.7082 193.198 74.4493L217.482 74.4493Z" fill='#F3BB2B'/>
</g>
<defs>
<filter id="filter0_d_151_153" x="7.18323" y="11.5762" width="273.817" height="274.919" filterUnits="userSpaceOnUse" color-interpolation-filters="sRGB">
<feFlood flood-opacity="0" result="BackgroundImageFix"/>
<feColorMatrix in="SourceAlpha" type="matrix" values="0 0 0 0 0 0 0 0 0 0 0 0 0 0 0 0 0 0 127 0" result="hardAlpha"/>
<feOffset dx="25" dy="30"/>
<feGaussianBlur stdDeviation="15"/>
<feComposite in2="hardAlpha" operator="out"/>
<feColorMatrix type="matrix" values="0 0 0 0 0 0 0 0 0 0 0 0 0 0 0 0 0 0 0.7 0"/>
<feBlend mode="normal" in2="BackgroundImageFix" result="effect1_dropShadow_151_153"/>
<feBlend mode="normal" in="SourceGraphic" in2="effect1_dropShadow_151_153" result="shape"/>
</filter>
</defs>
</svg>
