<svg width="21" height="21" viewBox="0 0 21 21" fill="none" xmlns="http://www.w3.org/2000/svg">
<path d="M13.5 17.7188V16.0312C13.5 15.1361 13.1444 14.2777 12.5115 13.6448C11.8786 13.0118 11.0201 12.6563 10.125 12.6562H5.0625C4.16739 12.6563 3.30895 13.0118 2.67601 13.6448C2.04308 14.2777 1.6875 15.1361 1.6875 16.0312V17.7188" stroke="#D1AA67" stroke-width="1.6875" stroke-linecap="round" stroke-linejoin="round"/>
<path d="M7.59375 9.28125C9.45771 9.28125 10.9688 7.77021 10.9688 5.90625C10.9688 4.04229 9.45771 2.53125 7.59375 2.53125C5.72979 2.53125 4.21875 4.04229 4.21875 5.90625C4.21875 7.77021 5.72979 9.28125 7.59375 9.28125Z" stroke="#D1AA67" stroke-width="1.6875" stroke-linecap="round" stroke-linejoin="round"/>
<path d="M18.5625 17.7145V16.027C18.5619 15.2792 18.3131 14.5528 17.8549 13.9618C17.3968 13.3708 16.7553 12.9487 16.0312 12.7617" stroke="#D1AA67" stroke-width="1.6875" stroke-linecap="round" stroke-linejoin="round"/>
<path d="M13.5 2.63672C14.226 2.8226 14.8694 3.24481 15.3289 3.83679C15.7885 4.42878 16.0379 5.15686 16.0379 5.90625C16.0379 6.65564 15.7885 7.38372 15.3289 7.97571C14.8694 8.56769 14.226 8.9899 13.5 9.17578" stroke="#D1AA67" stroke-width="1.6875" stroke-linecap="round" stroke-linejoin="round"/>
</svg>
